<?xml version="1.0" encoding="UTF-8"?> <svg xmlns="http://www.w3.org/2000/svg" width="190" height="39" viewBox="0 0 190 39" fill="none"> <g clip-path="url(#clip0_5864_12252)"> <path d="M67.0142 12.8672H56.2659V18.5135H66.8114V24.9544H56.2659V35.7032H49.7764V6.42627H67.0142V12.8672Z" fill="#181D31"></path> <path d="M76.2428 11.8633C75.5398 12.5882 74.688 12.9507 73.6876 12.9507C72.687 12.9507 71.8218 12.5882 71.0917 11.8633C70.3886 11.1105 70.0371 10.2182 70.0371 9.18655C70.0371 8.15489 70.3886 7.27657 71.0917 6.55161C71.8218 5.79879 72.687 5.42236 73.6876 5.42236C74.688 5.42236 75.5398 5.79879 76.2428 6.55161C76.9728 7.27657 77.3378 8.15489 77.3378 9.18655C77.3378 10.2182 76.9728 11.1105 76.2428 11.8633ZM70.6456 35.703V14.791H76.7294V35.703H70.6456Z" fill="#181D31"></path> <path d="M93.0657 20.8137H88.8879V28.2165C88.8879 29.053 89.2125 29.5827 89.8614 29.8059C90.5103 30.029 91.5785 30.0987 93.0657 30.0151V35.703C89.1989 36.1214 86.5221 35.7449 85.0349 34.5739C83.5477 33.3749 82.8041 31.2558 82.8041 28.2165V20.8137H79.5593V14.7909H82.8041V10.8176L88.8879 8.93555V14.7909H93.0657V20.8137Z" fill="#181D31"></path> <path d="M106.65 36.2889C103.757 36.2889 101.337 35.6476 99.39 34.365C97.4702 33.0544 96.1048 31.284 95.2936 29.0532L100.891 25.7074C102.026 28.4119 104.014 29.7642 106.853 29.7642C109.422 29.7642 110.706 28.9696 110.706 27.3804C110.706 26.516 110.287 25.8467 109.449 25.3729C108.638 24.8709 107.096 24.2992 104.825 23.6579C103.635 23.3234 102.594 22.9469 101.702 22.5288C100.81 22.1104 99.9309 21.5667 99.0655 20.8977C98.2274 20.2005 97.5784 19.3361 97.1187 18.3044C96.6861 17.2728 96.4698 16.0878 96.4698 14.7494C96.4698 12.0448 97.4026 9.88383 99.2684 8.26664C101.161 6.64943 103.406 5.84082 106.001 5.84082C108.327 5.84082 110.382 6.41243 112.166 7.55561C113.951 8.67093 115.357 10.3021 116.385 12.4491L110.909 15.7532C110.395 14.6379 109.76 13.8014 109.003 13.2437C108.246 12.6582 107.245 12.3654 106.001 12.3654C105.028 12.3654 104.271 12.5885 103.73 13.0346C103.216 13.4528 102.959 13.9687 102.959 14.5821C102.959 15.3071 103.284 15.9344 103.933 16.4642C104.609 16.994 105.988 17.5795 108.07 18.2208C109.205 18.5833 110.084 18.8761 110.706 19.0991C111.328 19.3222 112.112 19.6986 113.059 20.2284C114.032 20.7303 114.762 21.2739 115.249 21.8595C115.763 22.4172 116.209 23.1701 116.587 24.118C116.993 25.0381 117.196 26.0978 117.196 27.2966C117.196 30.085 116.222 32.2877 114.275 33.9049C112.329 35.4943 109.787 36.2889 106.65 36.2889Z" fill="#181D31"></path> <path d="M131.526 20.8137H127.348V28.2165C127.348 29.053 127.673 29.5827 128.322 29.8059C128.971 30.029 130.039 30.0987 131.526 30.0151V35.703C127.659 36.1214 124.982 35.7449 123.495 34.5739C122.008 33.3749 121.264 31.2558 121.264 28.2165V20.8137H118.02V14.7909H121.264V10.8176L127.348 8.93555V14.7909H131.526V20.8137Z" fill="#181D31"></path> <path d="M149.298 14.7911H155.382V35.7032H149.298V33.7375C147.865 35.4383 145.85 36.2888 143.254 36.2888C140.577 36.2888 138.293 35.2293 136.4 33.1102C134.507 30.9631 133.561 28.3422 133.561 25.2472C133.561 22.1522 134.507 19.5451 136.4 17.426C138.293 15.2791 140.577 14.2056 143.254 14.2056C145.85 14.2056 147.865 15.056 149.298 16.7569V14.7911ZM140.983 28.9695C141.875 29.8897 143.038 30.3497 144.471 30.3497C145.904 30.3497 147.067 29.8897 147.959 28.9695C148.852 28.0494 149.298 26.8087 149.298 25.2472C149.298 23.6857 148.852 22.445 147.959 21.5249C147.067 20.6047 145.904 20.1446 144.471 20.1446C143.038 20.1446 141.875 20.6047 140.983 21.5249C140.091 22.445 139.645 23.6857 139.645 25.2472C139.645 26.8087 140.091 28.0494 140.983 28.9695Z" fill="#181D31"></path> <path d="M165.929 18.5136C166.308 17.1753 167.065 16.1575 168.2 15.4605C169.363 14.7355 170.634 14.373 172.013 14.373V21.4831C170.526 21.2323 169.133 21.4971 167.835 22.2777C166.565 23.0306 165.929 24.3552 165.929 26.2512V35.7033H159.845V14.7913H165.929V18.5136Z" fill="#181D31"></path> <path d="M180.022 20.8975C180.022 21.3157 180.36 21.6642 181.036 21.943C181.739 22.1939 182.578 22.4588 183.551 22.7376C184.524 22.9887 185.498 23.3233 186.471 23.7414C187.445 24.1598 188.27 24.8568 188.945 25.8328C189.649 26.7807 190 27.9797 190 29.4296C190 31.688 189.189 33.403 187.566 34.574C185.944 35.7171 183.943 36.2888 181.564 36.2888C177.291 36.2888 174.385 34.6297 172.843 31.3116L178.116 28.2166C178.657 29.8617 179.806 30.6843 181.564 30.6843C183.024 30.6843 183.754 30.2521 183.754 29.3879C183.754 28.9695 183.402 28.621 182.699 28.3422C182.023 28.0633 181.199 27.7985 180.225 27.5476C179.252 27.2687 178.278 26.9202 177.305 26.5019C176.331 26.0558 175.493 25.3727 174.79 24.4526C174.114 23.5324 173.776 22.4031 173.776 21.0648C173.776 18.8899 174.533 17.203 176.047 16.004C177.589 14.8051 179.482 14.2056 181.726 14.2056C183.402 14.2056 184.93 14.5959 186.309 15.3767C187.688 16.1295 188.797 17.2309 189.635 18.6808L184.443 21.5666C183.794 20.3398 182.888 19.7264 181.726 19.7264C180.59 19.7264 180.022 20.1167 180.022 20.8975Z" fill="#181D31"></path> <path d="M24.5878 10.7991L22.0516 1.72043C21.4112 -0.57348 18.2483 -0.573476 17.6077 1.72044L15.0259 10.7991H24.5878Z" fill="#EF16B0"></path> <path d="M37.2625 13.0783L27.1459 13.439H12.5132L2.39685 13.0783C0.0761653 12.9955 -0.901204 16.087 1.0236 17.422L9.41423 23.2414C10.2936 23.8513 10.6562 24.9981 10.2935 26.0227L6.8336 35.7994C6.03989 38.0423 8.59868 39.9528 10.4288 38.484L18.4068 32.0809C19.243 31.41 20.4162 31.41 21.2525 32.0809L29.2305 38.484C31.0604 39.9528 33.6193 38.0423 32.8257 35.7994L29.3656 26.0227C29.003 24.9981 29.3656 23.8513 30.245 23.2414L38.6356 17.422C40.5604 16.087 39.5831 12.9955 37.2625 13.0783Z" fill="#EF16B0"></path> </g> <defs> <clipPath id="clip0_5864_12252"> <rect width="190" height="39" fill="white"></rect> </clipPath> </defs> </svg> 